<svg width="105" height="66" viewBox="0 0 105 66" fill="none" xmlns="http://www.w3.org/2000/svg">
<path d="M11.2159 7.72727H16.7614V23.8182C16.7538 25.3258 16.3939 26.6439 15.6818 27.7727C14.9697 28.8939 13.9848 29.7652 12.7273 30.3864C11.4773 31.0076 10.0303 31.3182 8.38636 31.3182C6.93182 31.3182 5.60985 31.0644 4.42045 30.5568C3.23864 30.0492 2.29545 29.2614 1.59091 28.1932C0.893939 27.125 0.549242 25.7576 0.556818 24.0909H6.15909C6.18182 24.6894 6.29545 25.2008 6.5 25.625C6.71212 26.0417 7.00379 26.3561 7.375 26.5682C7.74621 26.7803 8.18939 26.8864 8.70455 26.8864C9.24242 26.8864 9.69697 26.7727 10.0682 26.5455C10.4394 26.3106 10.7197 25.9659 10.9091 25.5114C11.1061 25.0568 11.2083 24.4924 11.2159 23.8182V7.72727ZM28.4403 31.3295C26.607 31.3295 25.0313 30.9545 23.7131 30.2045C22.4025 29.447 21.3911 28.3939 20.679 27.0455C19.9744 25.6894 19.6222 24.1174 19.6222 22.3295C19.6222 20.5341 19.9744 18.9621 20.679 17.6136C21.3911 16.2576 22.4025 15.2045 23.7131 14.4545C25.0313 13.697 26.607 13.3182 28.4403 13.3182C30.2737 13.3182 31.8456 13.697 33.1562 14.4545C34.4744 15.2045 35.4858 16.2576 36.1903 17.6136C36.9025 18.9621 37.2585 20.5341 37.2585 22.3295C37.2585 24.1174 36.9025 25.6894 36.1903 27.0455C35.4858 28.3939 34.4744 29.447 33.1562 30.2045C31.8456 30.9545 30.2737 31.3295 28.4403 31.3295ZM28.4744 27.1364C29.1411 27.1364 29.7055 26.9318 30.1676 26.5227C30.6297 26.1136 30.982 25.5455 31.2244 24.8182C31.4744 24.0909 31.5994 23.25 31.5994 22.2955C31.5994 21.3258 31.4744 20.4773 31.2244 19.75C30.982 19.0227 30.6297 18.4545 30.1676 18.0455C29.7055 17.6364 29.1411 17.4318 28.4744 17.4318C27.785 17.4318 27.2017 17.6364 26.7244 18.0455C26.2547 18.4545 25.8949 19.0227 25.6449 19.75C25.4025 20.4773 25.2812 21.3258 25.2812 22.2955C25.2812 23.25 25.4025 24.0909 25.6449 24.8182C25.8949 25.5455 26.2547 26.1136 26.7244 26.5227C27.2017 26.9318 27.785 27.1364 28.4744 27.1364ZM40.1051 31V7.72727H45.6619V16.5341H45.7756C46.0028 16.0038 46.3248 15.4924 46.7415 15C47.1657 14.5076 47.7036 14.1061 48.3551 13.7955C49.0142 13.4773 49.8021 13.3182 50.7188 13.3182C51.9309 13.3182 53.0634 13.6364 54.1165 14.2727C55.1771 14.9091 56.0331 15.8902 56.6847 17.2159C57.3362 18.5417 57.6619 20.2311 57.6619 22.2841C57.6619 24.2614 57.3475 25.9167 56.7188 27.25C56.0975 28.5833 55.2566 29.5833 54.196 30.25C53.143 30.9167 51.9725 31.25 50.6847 31.25C49.8059 31.25 49.0445 31.1061 48.4006 30.8182C47.7566 30.5303 47.215 30.1515 46.7756 29.6818C46.3438 29.2121 46.0104 28.7083 45.7756 28.1705H45.6051V31H40.1051ZM45.5483 22.2727C45.5483 23.2121 45.6733 24.0303 45.9233 24.7273C46.1809 25.4242 46.5483 25.9659 47.0256 26.3523C47.5104 26.7311 48.09 26.9205 48.7642 26.9205C49.446 26.9205 50.0256 26.7311 50.5028 26.3523C50.9801 25.9659 51.34 25.4242 51.5824 24.7273C51.8324 24.0303 51.9574 23.2121 51.9574 22.2727C51.9574 21.3333 51.8324 20.5189 51.5824 19.8295C51.34 19.1402 50.9801 18.6061 50.5028 18.2273C50.0331 17.8485 49.4536 17.6591 48.7642 17.6591C48.0824 17.6591 47.5028 17.8447 47.0256 18.2159C46.5483 18.5871 46.1809 19.1174 45.9233 19.8068C45.6733 20.4962 45.5483 21.3182 45.5483 22.2727Z" fill="#0F172A"/>
<path d="M81.2159 15.7273V39H79.1477L65.3977 19.5114H65.2159V39H63.0909V15.7273H65.1477L78.9432 35.2386H79.125V15.7273H81.2159ZM86.483 39V37.3977L99.4034 17.6364H86.4148V15.7273H101.938V17.3295L89.0057 37.0909H102.051V39H86.483Z" fill="#0F172A"/>
<path d="M14.0227 58V34.7273H18.9432V44.3295H28.9318V34.7273H33.8409V58H28.9318V48.3864H18.9432V58H14.0227ZM37.8068 58V40.5455H42.6477V58H37.8068ZM40.2386 38.2955C39.5189 38.2955 38.9015 38.0568 38.3864 37.5795C37.8788 37.0947 37.625 36.5152 37.625 35.8409C37.625 35.1742 37.8788 34.6023 38.3864 34.125C38.9015 33.6402 39.5189 33.3977 40.2386 33.3977C40.9583 33.3977 41.572 33.6402 42.0795 34.125C42.5947 34.6023 42.8523 35.1742 42.8523 35.8409C42.8523 36.5152 42.5947 37.0947 42.0795 37.5795C41.572 38.0568 40.9583 38.2955 40.2386 38.2955ZM50.9119 52.9773L50.9233 47.1705H51.6278L57.2188 40.5455H62.7756L55.2642 49.3182H54.1165L50.9119 52.9773ZM46.5256 58V34.7273H51.3665V58H46.5256ZM57.4347 58L52.2983 50.3977L55.5256 46.9773L63.1051 58H57.4347ZM72.3864 58.3409C70.5909 58.3409 69.0455 57.9773 67.75 57.25C66.4621 56.5152 65.4697 55.4773 64.7727 54.1364C64.0758 52.7879 63.7273 51.1932 63.7273 49.3523C63.7273 47.5568 64.0758 45.9811 64.7727 44.625C65.4697 43.2689 66.4508 42.2121 67.7159 41.4545C68.9886 40.697 70.4811 40.3182 72.1932 40.3182C73.3447 40.3182 74.4167 40.5038 75.4091 40.875C76.4091 41.2386 77.2803 41.7879 78.0227 42.5227C78.7727 43.2576 79.3561 44.1818 79.7727 45.2955C80.1894 46.4015 80.3977 47.697 80.3977 49.1818V50.5114H65.6591V47.5114H75.8409C75.8409 46.8144 75.6894 46.197 75.3864 45.6591C75.0833 45.1212 74.6629 44.7008 74.125 44.3977C73.5947 44.0871 72.9773 43.9318 72.2727 43.9318C71.5379 43.9318 70.8864 44.1023 70.3182 44.4432C69.7576 44.7765 69.3182 45.2273 69 45.7955C68.6818 46.3561 68.5189 46.9811 68.5114 47.6705V50.5227C68.5114 51.3864 68.6705 52.1326 68.9886 52.7614C69.3144 53.3902 69.7727 53.875 70.3636 54.2159C70.9545 54.5568 71.6553 54.7273 72.4659 54.7273C73.0038 54.7273 73.4962 54.6515 73.9432 54.5C74.3902 54.3485 74.7727 54.1212 75.0909 53.8182C75.4091 53.5152 75.6515 53.1439 75.8182 52.7045L80.2955 53C80.0682 54.0758 79.6023 55.0152 78.8977 55.8182C78.2008 56.6136 77.2992 57.2348 76.1932 57.6818C75.0947 58.1212 73.8258 58.3409 72.3864 58.3409Z" fill="#0F172A"/>
</svg>
